HIERARCHY
ROOT root
{
	OFFSET 0.000000 0.000000 0.000000
	CHANNELS 6 Xposition Yposition Zposition Zrotation Yrotation Xrotation
	JOINT lhip
	{
		OFFSET 0.058581 -0.082280 -0.017664
		CHANNELS 3 Zrotation Yrotation Xrotation
		JOINT lknee
		{
			OFFSET 0.043451 -0.386469 0.008037
			CHANNELS 3 Zrotation Yrotation Xrotation
			JOINT lankle
			{
				OFFSET -0.014790 -0.426874 -0.037428
				CHANNELS 3 Zrotation Yrotation Xrotation
				JOINT ltoe
				{
					OFFSET 0.041054 -0.060286 0.122042
					CHANNELS 3 Zrotation Yrotation Xrotation
					End Site
					{
						OFFSET 0.000000 0.000000 0.000000
					}
				}
			}
		}
	}
	JOINT rhip
	{
		OFFSET -0.060310 -0.090513 -0.013543
		CHANNELS 3 Zrotation Yrotation Xrotation
		JOINT rknee
		{
			OFFSET -0.043257 -0.383688 -0.004843
			CHANNELS 3 Zrotation Yrotation Xrotation
			JOINT rankle
			{
				OFFSET 0.019056 -0.420046 -0.034562
				CHANNELS 3 Zrotation Yrotation Xrotation
				JOINT rtoe
				{
					OFFSET -0.034840 -0.062106 0.130323
					CHANNELS 3 Zrotation Yrotation Xrotation
					End Site
					{
						OFFSET 0.000000 0.000000 0.000000
					}
				}
			}
		}
	}
	JOINT lowerback
	{
		OFFSET 0.004439 0.124404 -0.038385
		CHANNELS 3 Zrotation Yrotation Xrotation
		JOINT upperback
		{
			OFFSET 0.004488 0.137956 0.026820
			CHANNELS 3 Zrotation Yrotation Xrotation
			JOINT chest
			{
				OFFSET -0.002265 0.056032 0.002855
				CHANNELS 3 Zrotation Yrotation Xrotation
				JOINT lowerneck
				{
					OFFSET -0.013390 0.211636 -0.033468
					CHANNELS 3 Zrotation Yrotation Xrotation
					JOINT upperneck
					{
						OFFSET 0.010113 0.088937 0.050410
						CHANNELS 3 Zrotation Yrotation Xrotation
						End Site
						{
							OFFSET 0.000000 0.000000 0.000000
						}
					}
				}
				JOINT lclavicle
				{
					OFFSET 0.071702 0.114000 -0.018898
					CHANNELS 3 Zrotation Yrotation Xrotation
					JOINT lshoulder
					{
						OFFSET 0.122921 0.045205 -0.019046
						CHANNELS 3 Zrotation Yrotation Xrotation
						JOINT lelbow
						{
							OFFSET 0.255332 -0.015649 -0.022946
							CHANNELS 3 Zrotation Yrotation Xrotation
							JOINT lwrist
							{
								OFFSET 0.265709 0.012698 -0.007375
								CHANNELS 3 Zrotation Yrotation Xrotation
								End Site
								{
									OFFSET 0.000000 0.000000 0.000000
								}
							}
						}
					}
				}
				JOINT rclavicle
				{
					OFFSET -0.082954 0.112472 -0.023707
					CHANNELS 3 Zrotation Yrotation Xrotation
					JOINT rshoulder
					{
						OFFSET -0.113228 0.046853 -0.008472
						CHANNELS 3 Zrotation Yrotation Xrotation
						JOINT relbow
						{
							OFFSET -0.260127 -0.014369 -0.031269
							CHANNELS 3 Zrotation Yrotation Xrotation
							JOINT rwrist
							{
								OFFSET -0.269108 0.006794 -0.006027
								CHANNELS 3 Zrotation Yrotation Xrotation
								End Site
								{
									OFFSET 0.000000 0.000000 0.000000
								}
							}
						}
					}
				}
			}
		}
	}
}
MOTION
Frames: 12
Frame Time: 0.033333
0.079096 0.189362 0.989331 86.956748 1.449641 88.109368 2.226059 1.877209 5.146307 -1.877218 -10.102507 2.442571 3.683034 9.675599 -12.521813 0.000000 -0.000000 0.000000 -0.889010 -0.338822 4.503800 1.958532 5.510945 0.682487 0.564989 -5.267676 -11.723675 0.000000 -0.000000 0.000000 0.142352 -0.371830 3.413985 2.126744 -2.867878 -0.787528 0.735592 -0.872615 0.928774 0.576734 -11.554877 -0.084209 -1.057082 -17.755682 9.068063 -23.286750 3.293607 2.323451 -62.525943 -7.952662 12.857062 -0.383652 -23.173676 22.171046 -5.855518 1.458735 -4.355924 24.727964 4.441504 1.122805 58.645169 5.677627 18.247710 -3.652231 21.811179 18.735418 6.783550 -5.510079 6.088928 
0.079120 0.189455 0.989176 86.951400 1.452957 88.231403 2.213030 1.668790 5.060230 -1.887874 -10.088252 2.369692 3.632575 9.900288 -12.453640 0.000000 -0.000000 0.000000 -0.926678 -0.337085 4.345334 2.038448 5.534168 0.750483 0.752661 -5.384115 -11.749159 0.000000 -0.000000 0.000000 0.210438 -0.427691 3.440949 2.078831 -2.775000 -0.901401 0.828090 -0.841566 0.928801 0.611577 -10.692305 -0.296963 -1.379331 -16.782420 9.347161 -23.334414 3.288506 2.446308 -62.467856 -7.971078 12.794121 -0.375819 -23.263467 22.073029 -6.055839 1.430023 -4.199239 24.656781 4.465120 1.480512 58.685294 5.785025 18.445176 -3.784635 21.869399 18.646701 6.862324 -5.311548 6.311577 
0.079693 0.189521 0.989051 86.843820 1.467502 88.288314 2.240495 1.815126 5.119357 -1.859637 -10.120788 2.184375 3.578875 9.918704 -12.482934 0.000000 -0.000000 0.000000 -0.907979 -0.249218 4.276441 2.014512 5.553995 0.796786 0.829421 -5.371107 -11.775304 0.000000 -0.000000 0.000000 0.251202 -0.463618 3.366685 2.079268 -2.647365 -0.904731 0.905582 -0.798677 1.023093 0.694520 -9.284589 -0.332383 -1.482133 -15.312437 9.650209 -23.388983 3.352071 2.324950 -62.440721 -7.981244 12.772001 -0.523863 -23.308229 22.208332 -6.031283 1.451418 -3.957946 24.701995 4.322252 1.544069 58.540239 6.076239 18.495012 -3.854912 22.134960 18.541095 6.795570 -5.435159 6.363389 
0.080087 0.189593 0.988914 86.870441 1.443857 88.332916 2.196986 1.715770 5.209950 -1.827929 -10.170139 1.982490 3.615724 9.966540 -12.293808 0.000000 -0.000000 0.000000 -0.907347 -0.107246 4.324337 1.974752 5.482301 0.619046 0.787835 -5.496654 -11.751800 0.000000 -0.000000 0.000000 0.275345 -0.502631 3.407315 2.037976 -2.572849 -0.841795 0.959176 -0.696222 0.889870 0.748476 -7.763070 -0.089381 -1.482982 -13.633628 9.828356 -23.379351 3.066398 2.319390 -62.486241 -7.964338 12.868751 -0.499617 -23.444842 22.129127 -5.902823 1.262454 -3.972935 24.630146 4.493483 1.883323 58.522402 6.278454 18.616138 -3.896580 21.922967 18.486314 6.959117 -5.422948 6.248683 
0.080171 0.189473 0.988941 86.858803 1.491049 88.368771 2.235657 1.683265 5.125995 -1.799466 -10.041189 2.019543 3.659329 9.912527 -12.267587 0.000000 -0.000000 0.000000 -0.915788 -0.319687 4.274137 2.046287 5.407225 0.669028 0.830387 -5.231071 -11.766398 0.000000 -0.000000 0.000000 0.390076 -0.439285 3.471789 2.006969 -2.551766 -0.797074 0.986497 -0.738224 0.791806 0.855124 -6.740838 -0.171862 -1.546882 -12.450383 9.873081 -23.425179 3.016735 2.276306 -62.474299 -8.076501 12.846210 -0.430253 -23.681911 22.203085 -5.972225 1.180852 -3.468490 24.526958 4.574633 1.932795 58.524887 6.449482 18.686712 -3.834781 21.816276 18.332080 7.099516 -5.474720 6.350056 
0.080422 0.189251 0.988952 86.907314 1.460956 88.406771 2.229092 1.668072 5.014842 -1.853781 -10.008796 2.145898 3.683809 9.851504 -12.384685 0.000000 -0.000000 0.000000 -0.953143 -0.462119 4.264125 2.040860 5.340370 0.679242 0.899150 -5.181163 -11.728451 0.000000 -0.000000 0.000000 0.464055 -0.357822 3.459161 1.966291 -2.520865 -0.761621 0.972325 -0.779875 0.866417 0.799253 -5.544143 -0.137716 -1.513716 -10.948406 9.918987 -23.416273 2.839755 2.376098 -62.496203 -8.212328 12.871770 -0.486222 -24.218796 22.202371 -5.759529 1.046965 -3.726856 24.593676 4.558005 2.005157 58.406534 6.486982 18.812484 -3.900553 22.083227 18.437013 7.012029 -5.361933 6.420266 
0.080861 0.189056 0.989079 87.203966 1.499784 88.460121 2.248200 1.505476 4.866469 -1.845144 -10.060090 2.342051 3.746060 9.796678 -12.316208 0.000000 -0.000000 0.000000 -0.917327 -0.674264 4.329125 2.060824 5.304155 0.560307 0.896274 -5.219051 -11.724377 0.000000 -0.000000 0.000000 0.554705 -0.401058 3.407337 1.945864 -2.656230 -0.628669 1.019797 -0.789080 0.793819 0.641049 -4.642762 0.161602 -1.553626 -9.817883 9.993276 -23.371545 2.605292 2.304018 -62.641074 -8.201952 12.976701 -0.450013 -24.608837 22.336285 -5.722070 0.969284 -3.730597 24.457274 4.596679 2.171392 58.442117 6.518789 18.866527 -3.933261 22.276724 18.507027 6.937945 -5.220850 6.485983 
0.081114 0.188956 0.989359 87.216938 1.449503 88.515895 2.136681 1.374983 4.657023 -1.844981 -9.912326 2.641573 3.745204 9.791744 -12.505744 0.000000 -0.000000 0.000000 -0.941486 -0.603669 4.217740 2.014033 5.268561 0.678725 0.899806 -5.257383 -11.874514 0.000000 -0.000000 0.000000 0.588372 -0.343263 3.400791 1.902400 -2.546629 -0.612316 1.018573 -0.738113 0.824495 0.450097 -3.733983 0.342973 -1.664004 -8.931488 10.107925 -23.417500 2.437164 2.343206 -62.706217 -8.405021 13.033859 -0.291043 -25.314327 22.172210 -5.774568 1.085971 -3.766586 24.565185 4.576445 2.405771 58.335389 6.581106 18.906134 -4.134543 22.378471 18.183940 7.059893 -5.290931 6.413024 
0.081891 0.188897 0.989068 87.491943 1.410954 88.453762 2.107857 1.231786 4.737195 -1.867278 -10.026239 2.669570 3.766810 9.775334 -12.476646 0.000000 -0.000000 0.000000 -0.898786 -0.485691 4.441243 1.929194 5.318896 0.484701 0.870695 -5.632797 -11.854696 0.000000 -0.000000 0.000000 0.637548 -0.358568 3.360881 1.892743 -2.568429 -0.644081 0.980315 -0.839849 1.045641 0.254049 -3.058506 -0.056437 -1.692402 -8.112019 10.445398 -23.379222 2.263044 2.148165 -62.904434 -8.694050 13.246051 -0.541910 -24.938518 22.232427 -4.526179 0.641172 -4.498229 24.558549 4.574002 2.162246 58.378933 6.586130 19.072588 -3.962292 22.063573 18.516793 6.743594 -5.262484 6.110231 
0.083108 0.188607 0.988936 87.524330 1.378781 88.402522 2.116724 1.321881 4.933491 -1.879791 -10.156713 2.559484 3.678149 9.823132 -12.556332 0.000000 -0.000000 0.000000 -0.887485 -0.403758 4.606090 1.902577 5.262649 0.483186 0.909450 -5.708076 -11.921876 0.000000 -0.000000 0.000000 0.651483 -0.383162 3.466672 1.833110 -2.431136 -0.795316 0.989113 -0.752973 1.105684 0.159316 -2.297008 0.039846 -1.767146 -7.363881 10.707138 -23.299586 2.333287 1.962926 -63.061181 -8.850795 13.357567 -0.834743 -25.371152 22.521688 -4.514966 0.505147 -4.601890 24.592585 4.400902 2.170984 58.394535 6.555309 19.087476 -3.883958 22.167181 18.427428 6.824318 -5.130760 6.032155 
0.083990 0.188464 0.988830 87.537358 1.361156 88.506628 2.086930 1.220692 4.955996 -1.862590 -10.167990 2.467046 3.757962 9.810862 -12.468559 0.000000 -0.000000 0.000000 -0.956263 -0.619330 4.510958 1.983405 5.285114 0.582875 0.887989 -5.605209 -12.010251 0.000000 -0.000000 0.000000 0.688584 -0.271402 3.201442 1.825171 -2.380691 -0.736317 0.949520 -0.724512 1.132047 0.071637 -1.883729 0.176906 -1.832016 -6.910303 11.007977 -23.430300 2.317012 2.061090 -63.028890 -9.044503 13.434866 -0.878613 -25.938376 22.588952 -4.581885 0.552536 -4.766150 24.738992 4.376276 2.336030 58.268359 6.483035 19.108115 -4.059654 22.286241 18.318638 6.879133 -5.160750 6.076157 
0.085492 0.188280 0.988621 87.771159 1.366555 88.603861 2.118734 1.116135 5.041344 -1.833655 -10.193724 2.192231 3.748263 9.795029 -12.371500 0.000000 -0.000000 0.000000 -0.969958 -0.764342 4.647371 2.007978 5.164910 0.324642 0.932172 -5.603748 -12.073369 0.000000 -0.000000 0.000000 0.773560 -0.294811 2.899916 1.820482 -2.458634 -0.639447 0.879144 -0.730428 1.084596 -0.086061 -1.686376 0.449928 -1.902288 -6.692626 11.147839 -23.568426 2.311212 2.185380 -62.941390 -9.174620 13.426956 -0.874068 -26.568249 22.532986 -5.094244 0.643113 -4.746650 24.802489 4.313354 2.553951 58.255553 6.490303 19.047075 -4.203704 22.395498 18.235230 7.061481 -5.130791 6.222157 
